<svg width="209" height="226" viewBox="0 0 209 226" fill="none" xmlns="http://www.w3.org/2000/svg">
<rect width="209" height="226" fill="#1E1E1E"/>
<path d="M0.103871 174L4.45046 147.818H15.8027C17.7971 147.818 19.4292 148.087 20.699 148.624C21.9775 149.161 22.8809 149.919 23.4093 150.899C23.9462 151.879 24.1039 153.034 23.8823 154.364C23.7118 155.318 23.3453 156.192 22.7828 156.984C22.2289 157.768 21.5257 158.433 20.6735 158.979C19.8297 159.516 18.888 159.886 17.8482 160.091L17.7971 160.347C18.9221 160.381 19.9022 160.662 20.7374 161.19C21.5726 161.71 22.1863 162.435 22.5783 163.364C22.9703 164.284 23.0641 165.358 22.8596 166.585C22.6209 168.017 22.0371 169.291 21.1081 170.408C20.1792 171.524 18.9732 172.402 17.4902 173.041C16.0073 173.68 14.3198 174 12.4277 174H0.103871ZM8.18342 168.324H11.5073C12.6834 168.324 13.6081 168.098 14.2814 167.646C14.9632 167.195 15.3681 166.534 15.4959 165.665C15.5982 165.051 15.5471 164.531 15.3425 164.105C15.138 163.679 14.7928 163.355 14.307 163.134C13.8212 162.912 13.2118 162.801 12.4789 162.801H9.05273L8.18342 168.324ZM9.81978 158.403H12.7346C13.3482 158.403 13.9107 158.305 14.4221 158.109C14.9334 157.913 15.3553 157.628 15.6877 157.253C16.0201 156.878 16.2289 156.426 16.3141 155.898C16.4419 155.08 16.2459 154.457 15.726 154.031C15.2147 153.605 14.5243 153.392 13.655 153.392H10.638L9.81978 158.403ZM8.41832 218L12.7649 191.818H31.6342L30.6626 197.545H18.9013L18.1854 202.045H28.9751L28.0036 207.773H17.2138L16.4979 212.273H28.2081L27.2365 218H8.41832Z" fill="#874F4F"/>
<path d="M33.611 174.358C31.5144 174.358 29.7757 173.957 28.3951 173.156C27.0144 172.347 26.0428 171.187 25.4803 169.679C24.9178 168.162 24.8155 166.347 25.1735 164.233C25.5144 162.205 26.2175 160.432 27.2828 158.915C28.3567 157.398 29.7076 156.217 31.3354 155.374C32.9718 154.53 34.8042 154.108 36.8326 154.108C38.3155 154.108 39.6152 154.338 40.7317 154.798C41.8567 155.259 42.7729 155.928 43.4803 156.805C44.1877 157.683 44.665 158.744 44.9121 159.989C45.1678 161.224 45.1678 162.622 44.9121 164.182L44.6564 165.818H27.1167L27.7303 161.932H38.7757C38.861 161.369 38.8056 160.875 38.6096 160.449C38.4221 160.014 38.1195 159.678 37.7019 159.439C37.2928 159.192 36.7985 159.068 36.2189 159.068C35.6394 159.068 35.0939 159.192 34.5826 159.439C34.0797 159.686 33.6493 160.031 33.2914 160.474C32.9419 160.918 32.7076 161.437 32.5882 162.034L31.8212 166.125C31.7189 166.756 31.7573 167.318 31.9363 167.812C32.1152 168.307 32.4263 168.695 32.8695 168.976C33.3127 169.257 33.8837 169.398 34.5826 169.398C35.0598 169.398 35.5115 169.334 35.9377 169.206C36.3723 169.07 36.7559 168.874 37.0882 168.618C37.4292 168.354 37.7019 168.034 37.9064 167.659H44.3496C43.8894 169.023 43.1607 170.207 42.1635 171.213C41.1749 172.21 39.9561 172.986 38.5073 173.54C37.0669 174.085 35.4348 174.358 33.611 174.358ZM55.1042 162.955L53.2633 174H46.2065L49.4792 154.364H56.1781L55.5645 158.097H55.769C56.3912 156.844 57.2988 155.868 58.492 155.169C59.6937 154.462 61.019 154.108 62.4679 154.108C63.8571 154.108 65.0119 154.423 65.9324 155.054C66.8528 155.685 67.5048 156.554 67.8883 157.662C68.2718 158.77 68.34 160.04 68.0929 161.472L65.9963 174H58.9395L60.7804 162.955C60.9423 161.983 60.823 161.22 60.4224 160.666C60.0304 160.112 59.3826 159.835 58.4792 159.835C57.9082 159.835 57.3841 159.963 56.9068 160.219C56.438 160.466 56.046 160.824 55.7306 161.293C55.4238 161.753 55.215 162.307 55.1042 162.955ZM78.8379 174.358C76.7072 174.358 74.9515 173.936 73.5708 173.092C72.1902 172.24 71.2228 171.055 70.6689 169.538C70.1149 168.013 70.0083 166.244 70.3493 164.233C70.6731 162.222 71.3635 160.457 72.4203 158.94C73.4856 157.415 74.8493 156.23 76.5112 155.386C78.1816 154.534 80.0822 154.108 82.2129 154.108C84.139 154.108 85.7456 154.457 87.0325 155.156C88.3279 155.847 89.2527 156.827 89.8066 158.097C90.3691 159.358 90.514 160.841 90.2413 162.545H83.6958C83.7726 161.523 83.6064 160.739 83.1973 160.193C82.7967 159.648 82.2129 159.375 81.4458 159.375C80.8152 159.375 80.2356 159.554 79.7072 159.912C79.1873 160.261 78.7399 160.794 78.3649 161.51C77.9984 162.217 77.7299 163.108 77.5595 164.182C77.389 165.256 77.3677 166.151 77.4956 166.866C77.6319 167.574 77.8961 168.107 78.2882 168.464C78.6887 168.814 79.1958 168.989 79.8095 168.989C80.3379 168.989 80.8237 168.869 81.2669 168.631C81.7186 168.384 82.1064 168.026 82.4302 167.557C82.7626 167.08 83.014 166.5 83.1845 165.818H89.7299C89.4061 167.557 88.7541 169.065 87.774 170.344C86.7939 171.622 85.5453 172.611 84.0282 173.31C82.5112 174.009 80.7811 174.358 78.8379 174.358ZM100.21 162.955L98.3688 174H91.312L95.6586 147.818H102.46L100.772 158.097H100.977C101.616 156.844 102.511 155.868 103.661 155.169C104.812 154.462 106.116 154.108 107.573 154.108C108.954 154.108 110.105 154.423 111.025 155.054C111.945 155.685 112.597 156.554 112.981 157.662C113.365 158.77 113.437 160.04 113.198 161.472L111.102 174H104.045L105.886 162.955C106.039 161.983 105.916 161.22 105.515 160.666C105.123 160.112 104.48 159.835 103.585 159.835C103.005 159.835 102.477 159.963 101.999 160.219C101.531 160.466 101.139 160.824 100.823 161.293C100.517 161.753 100.312 162.307 100.21 162.955ZM114.585 174L117.858 154.364H124.557L123.943 158.097H124.148C124.753 156.869 125.61 155.898 126.718 155.182C127.825 154.466 129.066 154.108 130.438 154.108C131.81 154.108 132.935 154.474 133.813 155.207C134.691 155.932 135.134 156.895 135.142 158.097H135.347C135.875 156.895 136.74 155.932 137.942 155.207C139.144 154.474 140.477 154.108 141.943 154.108C143.81 154.108 145.229 154.713 146.2 155.923C147.181 157.134 147.5 158.744 147.159 160.756L144.96 174H137.904L139.847 162.545C139.966 161.685 139.847 161.011 139.489 160.526C139.131 160.031 138.585 159.784 137.852 159.784C137.128 159.784 136.514 160.031 136.012 160.526C135.517 161.011 135.21 161.685 135.091 162.545L133.148 174H126.398L128.341 162.545C128.46 161.685 128.341 161.011 127.983 160.526C127.625 160.031 127.08 159.784 126.347 159.784C125.869 159.784 125.435 159.895 125.043 160.116C124.659 160.338 124.34 160.658 124.084 161.075C123.837 161.484 123.671 161.974 123.585 162.545L121.642 174H114.585ZM153.81 174.307C152.566 174.307 151.496 174.102 150.601 173.693C149.715 173.276 149.067 172.645 148.658 171.801C148.258 170.949 148.168 169.875 148.39 168.58C148.569 167.506 148.905 166.589 149.4 165.831C149.894 165.072 150.508 164.45 151.241 163.964C151.974 163.479 152.796 163.108 153.708 162.852C154.628 162.588 155.6 162.418 156.623 162.341C157.731 162.256 158.63 162.149 159.32 162.021C160.01 161.893 160.526 161.719 160.867 161.497C161.208 161.276 161.412 160.977 161.481 160.602V160.551C161.557 160.04 161.421 159.648 161.072 159.375C160.731 159.102 160.253 158.966 159.64 158.966C158.975 158.966 158.4 159.111 157.914 159.401C157.437 159.69 157.108 160.142 156.93 160.756H150.435C150.708 159.562 151.266 158.463 152.11 157.457C152.962 156.443 154.091 155.634 155.498 155.028C156.912 154.415 158.6 154.108 160.56 154.108C161.958 154.108 163.185 154.274 164.242 154.607C165.299 154.93 166.172 155.386 166.863 155.974C167.562 156.554 168.052 157.236 168.333 158.02C168.623 158.795 168.691 159.639 168.537 160.551L166.287 174H159.691L160.151 171.239H159.998C159.486 171.972 158.911 172.564 158.272 173.016C157.641 173.467 156.951 173.795 156.201 174C155.459 174.205 154.662 174.307 153.81 174.307ZM156.878 169.858C157.407 169.858 157.927 169.747 158.438 169.526C158.949 169.304 159.388 168.984 159.755 168.567C160.121 168.149 160.356 167.642 160.458 167.045L160.714 165.409C160.526 165.486 160.317 165.558 160.087 165.626C159.866 165.686 159.631 165.746 159.384 165.805C159.145 165.865 158.89 165.92 158.617 165.972C158.353 166.023 158.08 166.074 157.799 166.125C157.236 166.21 156.763 166.351 156.38 166.547C155.996 166.734 155.698 166.969 155.485 167.25C155.272 167.523 155.14 167.83 155.089 168.17C155.012 168.707 155.135 169.125 155.459 169.423C155.792 169.713 156.265 169.858 156.878 169.858ZM169.659 174L172.932 154.364H179.784L179.171 158.097H179.375C179.963 156.716 180.7 155.706 181.587 155.067C182.473 154.428 183.441 154.108 184.489 154.108C184.796 154.108 185.09 154.134 185.371 154.185C185.661 154.227 185.946 154.287 186.227 154.364L185.205 160.398C184.872 160.27 184.459 160.18 183.965 160.129C183.47 160.07 183.031 160.04 182.648 160.04C181.966 160.04 181.327 160.197 180.73 160.513C180.142 160.82 179.639 161.254 179.222 161.817C178.813 162.371 178.54 163.023 178.404 163.773L176.716 174H169.659ZM192.377 169.347L193.808 160.96H194.729L200.61 154.364H208.536L198.871 164.642H196.877L192.377 169.347ZM185.269 174L189.615 147.818H196.672L192.325 174H185.269ZM197.388 174L194.166 166.227L199.638 161.216L205.468 174H197.388Z" fill="#F3F6FF"/>
<path d="M39.864 206.955L38.0231 218H30.9663L34.239 198.364H40.9379L40.3242 202.097H40.5288C41.1509 200.844 42.0586 199.868 43.2518 199.169C44.4535 198.462 45.7788 198.108 47.2276 198.108C48.6168 198.108 49.7717 198.423 50.6921 199.054C51.6126 199.685 52.2646 200.554 52.6481 201.662C53.0316 202.77 53.0998 204.04 52.8526 205.472L50.756 218H43.6992L45.5401 206.955C45.7021 205.983 45.5827 205.22 45.1822 204.666C44.7901 204.112 44.1424 203.835 43.239 203.835C42.668 203.835 42.1438 203.963 41.6665 204.219C41.1978 204.466 40.8058 204.824 40.4904 205.293C40.1836 205.753 39.9748 206.307 39.864 206.955ZM69.1715 198.364L68.3022 203.477H55.3647L56.234 198.364H69.1715ZM59.5067 193.659H66.5636L63.5721 211.685C63.5295 211.957 63.538 212.188 63.5977 212.375C63.6573 212.554 63.7766 212.69 63.9556 212.784C64.1431 212.869 64.3903 212.912 64.6971 212.912C64.9016 212.912 65.1531 212.886 65.4514 212.835C65.7496 212.776 65.9755 212.733 66.1289 212.707L66.3335 217.668C65.9755 217.77 65.494 217.885 64.8889 218.013C64.2923 218.149 63.5977 218.239 62.805 218.281C61.1516 218.358 59.805 218.183 58.7653 217.757C57.734 217.331 57.0181 216.666 56.6175 215.763C56.2255 214.851 56.1573 213.713 56.413 212.349L59.5067 193.659ZM77.9254 218.358C75.8288 218.358 74.0902 217.957 72.7095 217.156C71.3288 216.347 70.3572 215.187 69.7947 213.679C69.2322 212.162 69.13 210.347 69.4879 208.233C69.8288 206.205 70.532 204.432 71.5973 202.915C72.6712 201.398 74.022 200.217 75.6499 199.374C77.2862 198.53 79.1186 198.108 81.147 198.108C82.63 198.108 83.9297 198.338 85.0462 198.798C86.1712 199.259 87.0874 199.928 87.7947 200.805C88.5021 201.683 88.9794 202.744 89.2266 203.989C89.4822 205.224 89.4822 206.622 89.2266 208.182L88.9709 209.818H71.4311L72.0447 205.932H83.0902C83.1754 205.369 83.12 204.875 82.924 204.449C82.7365 204.014 82.4339 203.678 82.0163 203.439C81.6072 203.192 81.1129 203.068 80.5334 203.068C79.9538 203.068 79.4084 203.192 78.897 203.439C78.3942 203.686 77.9638 204.031 77.6058 204.474C77.2564 204.918 77.022 205.437 76.9027 206.034L76.1357 210.125C76.0334 210.756 76.0717 211.318 76.2507 211.812C76.4297 212.307 76.7408 212.695 77.1839 212.976C77.6271 213.257 78.1982 213.398 78.897 213.398C79.3743 213.398 79.826 213.334 80.2521 213.206C80.6868 213.07 81.0703 212.874 81.4027 212.618C81.7436 212.354 82.0163 212.034 82.2209 211.659H88.6641C88.2038 213.023 87.4751 214.207 86.478 215.213C85.4893 216.21 84.2706 216.986 82.8217 217.54C81.3814 218.085 79.7493 218.358 77.9254 218.358ZM90.4698 218L93.7425 198.364H100.595L99.9812 202.097H100.186C100.774 200.716 101.511 199.706 102.397 199.067C103.284 198.428 104.251 198.108 105.299 198.108C105.606 198.108 105.9 198.134 106.181 198.185C106.471 198.227 106.757 198.287 107.038 198.364L106.015 204.398C105.683 204.27 105.27 204.18 104.775 204.129C104.281 204.07 103.842 204.04 103.458 204.04C102.777 204.04 102.137 204.197 101.541 204.513C100.953 204.82 100.45 205.254 100.032 205.817C99.6232 206.371 99.3505 207.023 99.2141 207.773L97.5266 218H90.4698ZM104.903 225.364L109.429 198.364H116.434L115.872 201.79H116.025C116.383 201.125 116.852 200.516 117.431 199.962C118.02 199.399 118.71 198.952 119.502 198.619C120.304 198.278 121.19 198.108 122.162 198.108C123.457 198.108 124.629 198.453 125.677 199.143C126.725 199.834 127.497 200.92 127.991 202.403C128.485 203.886 128.537 205.812 128.145 208.182C127.77 210.449 127.1 212.328 126.137 213.82C125.183 215.311 124.058 216.423 122.762 217.156C121.475 217.889 120.133 218.256 118.735 218.256C117.815 218.256 117.018 218.107 116.345 217.808C115.672 217.501 115.13 217.088 114.721 216.568C114.312 216.04 114.031 215.443 113.877 214.778H113.724L111.985 225.364H104.903ZM114.696 208.182C114.542 209.136 114.529 209.963 114.657 210.662C114.794 211.352 115.062 211.889 115.463 212.273C115.872 212.648 116.4 212.835 117.048 212.835C117.696 212.835 118.275 212.652 118.787 212.286C119.298 211.911 119.733 211.378 120.091 210.688C120.449 209.989 120.713 209.153 120.883 208.182C121.037 207.21 121.049 206.379 120.922 205.689C120.794 204.99 120.534 204.457 120.142 204.091C119.75 203.716 119.23 203.528 118.582 203.528C117.934 203.528 117.342 203.716 116.805 204.091C116.277 204.457 115.829 204.99 115.463 205.689C115.105 206.379 114.849 207.21 114.696 208.182ZM129.458 218L132.731 198.364H139.583L138.969 202.097H139.174C139.762 200.716 140.499 199.706 141.386 199.067C142.272 198.428 143.239 198.108 144.288 198.108C144.594 198.108 144.888 198.134 145.17 198.185C145.46 198.227 145.745 198.287 146.026 198.364L145.004 204.398C144.671 204.27 144.258 204.18 143.763 204.129C143.269 204.07 142.83 204.04 142.447 204.04C141.765 204.04 141.126 204.197 140.529 204.513C139.941 204.82 139.438 205.254 139.021 205.817C138.612 206.371 138.339 207.023 138.202 207.773L136.515 218H129.458ZM145.067 218L148.34 198.364H155.397L152.124 218H145.067ZM152.175 196.318C151.221 196.318 150.45 196.003 149.862 195.372C149.273 194.733 149.056 193.974 149.21 193.097C149.363 192.202 149.832 191.443 150.616 190.821C151.4 190.19 152.269 189.875 153.224 189.875C154.187 189.875 154.954 190.19 155.525 190.821C156.096 191.443 156.309 192.202 156.164 193.097C156.028 193.974 155.567 194.733 154.783 195.372C154.008 196.003 153.138 196.318 152.175 196.318ZM175.816 204.756H169.475C169.51 204.347 169.437 203.997 169.258 203.707C169.079 203.418 168.828 203.196 168.504 203.043C168.189 202.889 167.831 202.812 167.43 202.812C166.731 202.812 166.096 202.97 165.525 203.286C164.954 203.592 164.635 203.997 164.566 204.5C164.524 204.696 164.588 204.879 164.758 205.05C164.929 205.22 165.376 205.378 166.1 205.523L169.987 206.239C171.93 206.597 173.345 207.249 174.231 208.195C175.126 209.132 175.45 210.372 175.203 211.915C174.973 213.253 174.385 214.403 173.439 215.366C172.493 216.33 171.291 217.071 169.833 217.591C168.385 218.102 166.782 218.358 165.027 218.358C161.933 218.358 159.615 217.74 158.072 216.504C156.538 215.268 155.839 213.653 155.975 211.659H162.828C162.845 212.298 163.058 212.78 163.467 213.104C163.885 213.419 164.439 213.585 165.129 213.602C165.879 213.628 166.535 213.479 167.098 213.155C167.66 212.822 167.975 212.409 168.044 211.915C168.069 211.634 167.946 211.42 167.673 211.276C167.409 211.131 166.902 210.986 166.152 210.841L162.777 210.227C160.833 209.878 159.419 209.179 158.532 208.131C157.646 207.074 157.339 205.727 157.612 204.091C157.833 202.787 158.362 201.692 159.197 200.805C160.041 199.919 161.149 199.25 162.521 198.798C163.893 198.338 165.478 198.108 167.277 198.108C170.217 198.108 172.441 198.7 173.95 199.885C175.467 201.061 176.089 202.685 175.816 204.756ZM186.242 218.358C184.145 218.358 182.407 217.957 181.026 217.156C179.645 216.347 178.674 215.187 178.111 213.679C177.549 212.162 177.446 210.347 177.804 208.233C178.145 206.205 178.848 204.432 179.914 202.915C180.988 201.398 182.338 200.217 183.966 199.374C185.603 198.53 187.435 198.108 189.463 198.108C190.946 198.108 192.246 198.338 193.363 198.798C194.488 199.259 195.404 199.928 196.111 200.805C196.819 201.683 197.296 202.744 197.543 203.989C197.799 205.224 197.799 206.622 197.543 208.182L197.287 209.818H179.748L180.361 205.932H191.407C191.492 205.369 191.436 204.875 191.24 204.449C191.053 204.014 190.75 203.678 190.333 203.439C189.924 203.192 189.429 203.068 188.85 203.068C188.27 203.068 187.725 203.192 187.213 203.439C186.711 203.686 186.28 204.031 185.922 204.474C185.573 204.918 185.338 205.437 185.219 206.034L184.452 210.125C184.35 210.756 184.388 211.318 184.567 211.812C184.746 212.307 185.057 212.695 185.5 212.976C185.944 213.257 186.515 213.398 187.213 213.398C187.691 213.398 188.142 213.334 188.569 213.206C189.003 213.07 189.387 212.874 189.719 212.618C190.06 212.354 190.333 212.034 190.537 211.659H196.98C196.52 213.023 195.792 214.207 194.794 215.213C193.806 216.21 192.587 216.986 191.138 217.54C189.698 218.085 188.066 218.358 186.242 218.358Z" fill="#F6F7FA"/>
<path d="M56.0739 86L67.6648 16.1818H97.9375C103.256 16.1818 107.608 16.8977 110.994 18.3295C114.403 19.7614 116.812 21.7841 118.222 24.3977C119.653 27.0114 120.074 30.0909 119.483 33.6364C119.028 36.1818 118.051 38.5114 116.551 40.625C115.074 42.7159 113.199 44.4886 110.926 45.9432C108.676 47.375 106.165 48.3636 103.392 48.9091L103.256 49.5909C106.256 49.6818 108.869 50.4318 111.097 51.8409C113.324 53.2273 114.96 55.1591 116.006 57.6364C117.051 60.0909 117.301 62.9545 116.756 66.2273C116.119 70.0455 114.563 73.4432 112.085 76.4205C109.608 79.3977 106.392 81.7386 102.438 83.4432C98.483 85.1477 93.983 86 88.9375 86H56.0739ZM77.6193 70.8636H86.483C89.6193 70.8636 92.0852 70.2614 93.8807 69.0568C95.6989 67.8523 96.7784 66.0909 97.1193 63.7727C97.392 62.1364 97.2557 60.75 96.7102 59.6136C96.1648 58.4773 95.2443 57.6136 93.9489 57.0227C92.6534 56.4318 91.0284 56.1364 89.0739 56.1364H79.9375L77.6193 70.8636ZM81.983 44.4091H89.7557C91.392 44.4091 92.892 44.1477 94.2557 43.625C95.6193 43.1023 96.7443 42.3409 97.6307 41.3409C98.517 40.3409 99.0739 39.1364 99.3011 37.7273C99.642 35.5455 99.1193 33.8864 97.733 32.75C96.3693 31.6136 94.5284 31.0455 92.2102 31.0455H84.1648L81.983 44.4091Z" fill="white"/>
<g style="mix-blend-mode:darken" filter="url(#filter0_b_0_1)">
<path d="M65 87C86.84 62 119.432 10 75.08 2H128L115.4 87H65Z" fill="#874F4F"/>
<path d="M65 87C86.84 62 119.432 10 75.08 2H128L115.4 87H65Z" stroke="#874F4F" stroke-opacity="0.6" stroke-width="3" stroke-linejoin="round"/>
</g>
<path d="M81.3693 139L96.8239 45.9091H163.915L160.46 66.2727H118.642L116.097 82.2727H154.46L151.006 102.636H112.642L110.097 118.636H151.733L148.278 139H81.3693Z" fill="white"/>
<g style="mix-blend-mode:darken" filter="url(#filter1_d_0_1)">
<mask id="path-5-inside-1_0_1" fill="white">
<path d="M95.3202 125.892C92.4744 129.438 89.373 133.139 86 137L95.3202 125.892C143.771 65.5229 118.15 50 98 50H159L95.3202 125.892Z"/>
</mask>
<path d="M95.3202 125.892C92.4744 129.438 89.373 133.139 86 137L95.3202 125.892C143.771 65.5229 118.15 50 98 50H159L95.3202 125.892Z" fill="#874F4F"/>
<path d="M86 137L-8.22436 57.9382C-51.5822 109.611 -45.2344 186.564 6.00479 230.433C57.2439 274.303 134.256 268.721 178.633 217.921L86 137ZM98 -73C30.069 -73 -25 -17.931 -25 50C-25 117.931 30.069 173 98 173V-73ZM159 50L253.224 129.062C283.95 92.4435 290.678 41.34 270.476 -1.98267C250.274 -45.3053 206.801 -73 159 -73V50ZM178.633 217.921C183.042 212.874 187.249 207.862 191.246 202.881L-0.605971 48.9042C-2.29991 51.0149 -4.29568 53.4039 -6.63283 56.0793L178.633 217.921ZM191.246 202.881C207.579 182.53 222.61 160.009 232.741 135.415C242.631 111.406 251.788 75.6196 241.686 35.3679C217.43 -61.2827 125.251 -73 98 -73V173C89.1095 173 73.0623 171.565 54.8247 161.797C33.5803 150.42 11.3377 128.132 3.08495 95.2474C-4.14896 66.4226 3.58746 45.836 5.28423 41.717C7.22219 37.0125 7.28653 39.0703 -0.60596 48.9042L191.246 202.881ZM98 173H159V-73H98V173ZM64.7756 -29.0618L1.09583 46.8306L189.545 204.954L253.224 129.062L64.7756 -29.0618ZM1.09583 46.8306L-8.22436 57.9382L180.224 216.062L189.545 204.954L1.09583 46.8306Z" fill="#874F4F" mask="url(#path-5-inside-1_0_1)"/>
</g>
<defs>
<filter id="filter0_b_0_1" x="59.5" y="-3.5" width="74" height="96" filterUnits="userSpaceOnUse" color-interpolation-filters="sRGB">
<feFlood flood-opacity="0" result="BackgroundImageFix"/>
<feGaussianBlur in="BackgroundImageFix" stdDeviation="2"/>
<feComposite in2="SourceAlpha" operator="in" result="effect1_backgroundBlur_0_1"/>
<feBlend mode="normal" in="SourceGraphic" in2="effect1_backgroundBlur_0_1" result="shape"/>
</filter>
<filter id="filter1_d_0_1" x="82" y="50" width="81" height="95" filterUnits="userSpaceOnUse" color-interpolation-filters="sRGB">
<feFlood flood-opacity="0" result="BackgroundImageFix"/>
<feColorMatrix in="SourceAlpha" type="matrix" values="0 0 0 0 0 0 0 0 0 0 0 0 0 0 0 0 0 0 127 0" result="hardAlpha"/>
<feOffset dy="4"/>
<feGaussianBlur stdDeviation="2"/>
<feComposite in2="hardAlpha" operator="out"/>
<feColorMatrix type="matrix" values="0 0 0 0 0 0 0 0 0 0 0 0 0 0 0 0 0 0 0.25 0"/>
<feBlend mode="normal" in2="BackgroundImageFix" result="effect1_dropShadow_0_1"/>
<feBlend mode="normal" in="SourceGraphic" in2="effect1_dropShadow_0_1" result="shape"/>
</filter>
</defs>
</svg>
